<svg width="1392" height="320" viewBox="0 0 1392 320" fill="none" xmlns="http://www.w3.org/2000/svg">
<path d="M22.2161 28.1521H63.5201L165.52 192.728H166.144V28.1601H203.376V251.56H162.08L60.4001 87.2881H59.4401V251.552H22.2161V28.1521ZM239.256 28.1521H274.936V61.9441H239.256V28.1521ZM239.256 89.7921H274.936V251.552H239.256V89.7921ZM291.576 89.7921H318.176V76.3361C318.176 66.1174 319.427 57.8774 321.928 51.6161C324.435 45.1575 327.773 40.2561 331.944 36.9121C335.964 33.4401 340.815 31.0697 346.024 30.0321C351.567 28.7688 357.235 28.1381 362.92 28.1521C374.392 28.1521 382.733 28.8828 387.944 30.3441V58.1841C385.651 57.5601 383.149 57.1441 380.44 56.9361C377.438 56.4825 374.404 56.2738 371.368 56.3121C366.568 56.3121 362.395 57.4588 358.848 59.7521C355.509 62.0454 353.84 66.5308 353.84 73.2081V89.7921H384.192V116.384H353.84V251.552H318.176V116.384H291.576V89.7921ZM383.704 89.7921H410.608V41.2961H446.28V89.7921H478.504V116.384H446.28V202.744C446.28 206.504 446.387 209.736 446.6 212.44C447.005 215.16 447.733 217.453 448.784 219.32C450.032 221.208 451.805 222.669 454.104 223.704C456.397 224.541 459.525 224.96 463.488 224.96H471C473.507 224.752 476.008 224.333 478.504 223.704V251.24C474.547 251.656 470.688 252.075 466.928 252.496C463.173 252.912 459.315 253.12 455.352 253.12C445.965 253.12 438.352 252.285 432.512 250.616C426.885 248.739 422.4 246.131 419.056 242.792C415.931 239.251 413.741 234.872 412.488 229.656C411.371 223.771 410.743 217.804 410.608 211.816V116.384H383.704V89.7921ZM480.072 89.7921H519.192L561.432 210.568H562.048L603.04 89.7921H640.272L577.384 260.312C574.467 267.619 571.547 274.605 568.624 281.272C566.114 287.616 562.629 293.53 558.296 298.8C554.341 304.012 549.191 308.196 543.28 311C537.227 314.136 529.509 315.701 520.128 315.696C511.781 315.696 503.541 315.069 495.408 313.816V283.784C498.325 284.2 501.141 284.616 503.856 285.032C506.565 285.661 509.381 285.976 512.304 285.976C516.469 285.976 519.909 285.453 522.624 284.408C525.2 283.465 527.472 281.842 529.2 279.712C531.152 277.709 532.738 275.381 533.888 272.832C535.141 270.112 536.288 266.984 537.328 263.448L541.4 250.928L480.072 89.7921ZM1335.99 29.8081H1324.76V61.6801H1314.97V29.8081H1303.74V22.1281H1335.99V29.8081ZM1386.87 61.6801H1377.66V33.6481H1377.46L1367.29 61.6801H1360.66L1350.49 33.6481H1350.3V61.6801H1341.08V22.1201H1354.14L1364.02 48.1441L1373.91 22.1281H1386.87V61.6801Z" fill="white" style="fill:white;fill-opacity:1;"/>
<path d="M1177.53 119.976H1139.54L1150.18 69.088H1191.92C1196.45 69.088 1200.76 69.3814 1204.84 69.968C1208.6 70.504 1211.73 71.552 1214.33 73.008C1216.52 74.24 1218.33 76.128 1219.72 78.912L1219.82 79.096L1219.92 79.272C1221.26 81.56 1222.22 85.168 1222.22 90.624C1222.22 95.912 1220.99 100.184 1218.78 103.664L1218.74 103.736C1216.41 107.42 1213.24 110.493 1209.49 112.696C1205.06 115.233 1200.28 117.104 1195.3 118.248C1189.45 119.425 1183.5 120.004 1177.53 119.976ZM757.728 105.44L775.632 26.24L777.288 18.92H715.152L714.136 23.664L666.136 247.064L664.576 254.328H726.592L727.632 249.624L747.928 158.328H826.296L806.584 247.024L804.968 254.328H1111.06L1112.06 249.568L1129.51 167.032H1170.96C1175.41 167.037 1179.38 167.411 1182.86 168.152L1183.02 168.184L1183.16 168.208C1186.3 168.704 1188.66 169.728 1190.46 171.104L1190.54 171.168L1190.62 171.232C1192.57 172.616 1194.07 174.504 1195.14 177.08L1195.22 177.288L1195.32 177.48C1196.42 179.696 1197.18 183.056 1197.18 187.936C1197.18 195.216 1196.78 202.613 1195.97 210.128C1195.11 217.823 1194.68 225.561 1194.68 233.304C1194.68 236.147 1194.92 238.979 1195.39 241.8L1195.41 241.888C1195.85 244.288 1196.38 246.883 1197.02 249.672L1198.1 254.328H1259.4L1256.36 246.216C1255.22 242.98 1254.5 239.612 1254.22 236.192C1253.81 231.59 1253.61 226.972 1253.62 222.352C1253.62 215.621 1253.82 208.888 1254.22 202.152C1254.86 194.979 1255.18 188.781 1255.18 183.56C1255.18 173.896 1253.5 165.032 1249.99 157.08C1248.11 152.668 1245.21 148.764 1241.53 145.688C1244.32 144.599 1247.02 143.316 1249.63 141.848C1256.33 138.077 1262.36 133.21 1267.45 127.448L1267.49 127.4L1267.53 127.36C1272.6 121.344 1276.56 114.474 1279.22 107.072C1281.97 99.4942 1283.37 91.4925 1283.34 83.432C1283.34 72.048 1281.7 62.032 1278.18 53.592C1274.71 45.248 1269.65 38.352 1262.95 33.072C1256.33 27.648 1248.4 23.96 1239.32 21.904C1230.6 19.6907 1221.04 18.696 1210.63 18.92H855.552L854.568 23.72L837.776 105.44H757.728Z" stroke="white" style="stroke:white;stroke-opacity:1;" stroke-width="12"/>
</svg>
